<?xml version="1.0" encoding="UTF-8"?>
<svg id="Camada_2" data-name="Camada 2" xmlns="http://www.w3.org/2000/svg" viewBox="0 0 49.75 49.75">
  <defs>
    <style>
      .cls-1 {
        fill: #fff;
      }
    </style>
  </defs>
  <g id="Sobre_Mim" data-name="Sobre Mim">
    <g id="insta">
      <g>
        <path class="cls-1" d="m24.84,13.15c-6.41,0-11.6,5.19-11.6,11.6s5.19,11.6,11.6,11.6,11.6-5.19,11.6-11.6-5.19-11.6-11.6-11.6Zm0,18.8c-3.98,0-7.2-3.22-7.2-7.2s3.22-7.2,7.2-7.2,7.2,3.22,7.2,7.2-3.22,7.2-7.2,7.2Z"/>
        <path class="cls-1" d="m38.15,0H11.6C5.19,0,0,5.19,0,11.6v26.55c0,6.41,5.19,11.6,11.6,11.6h26.55c6.41,0,11.6-5.19,11.6-11.6V11.6c0-6.41-5.19-11.6-11.6-11.6Zm6.37,37.94c0,3.63-2.94,6.57-6.57,6.57H11.81c-3.63,0-6.57-2.94-6.57-6.57V11.81c0-3.63,2.94-6.57,6.57-6.57h26.14c3.63,0,6.57,2.94,6.57,6.57v26.14Z"/>
      </g>
    </g>
  </g>
</svg>