<?xml version="1.0" encoding="UTF-8"?>
<svg id="Camada_2" data-name="Camada 2" xmlns="http://www.w3.org/2000/svg" viewBox="0 0 56.67 48.91">
  <defs>
    <style>
      .cls-1 {
        fill: #fff;
      }
    </style>
  </defs>
  <g id="Sobre_Mim" data-name="Sobre Mim">
    <path id="twitter" class="cls-1" d="m55.68,6.29c-.59.09-1.14.12-1.52-.1.99-.36,1.59-1.54,2.04-3.04.54-.81-.2-1.86-1.14-1.62-2.01,1.16-4.19,1.88-6.53,2.18-2.32-2.29-5.51-3.7-9.02-3.7-7.11,0-12.87,5.76-12.87,12.87v.92l-7.07-1.08S10.45,9.47,7.02,3.68c-.71-1.2-2.01-1.2-2.74,0-2.29,3.76-2.24,8.51-.39,12.87-1.1-.56-2.57.25-2.4,1.64.68,5.39,3.94,9.94,8.85,11.48.54.17,1.09.28,1.63.37-1.63-.09-3.18-.53-4.54-1.34-1.34-.79-2.93.56-2.28,1.98,1.5,3.29,4.04,5.85,7.1,7.1-3.25,1.64-6.83,2.69-10.59,3.01-1.77.15-2.3,2.47-.79,3.41,3.8,2.37,8.1,4.56,12.88,4.69,26.66.75,38.61-19.47,38.61-36.02,0-.07,0-.15-.01-.22,1.62-1.43,3.08-2.92,4.03-4.58.6-.66.18-1.72-.71-1.78Z"/>
  </g>
</svg>